<svg width="140" height="93" viewBox="0 0 140 93" fill="none" xmlns="http://www.w3.org/2000/svg">
<path d="M77.8124 1.14325C75.8549 2.01325 73.3537 3.862 70.5262 6.58075L66.1762 10.7133L64.4362 9.13638C61.4999 6.58075 56.6606 6.30888 52.9631 8.59263C50.2443 10.2239 49.3199 12.562 49.2656 17.5645C49.2656 21.697 49.3743 22.0776 51.2774 25.0139C52.4193 26.6995 54.2681 28.8201 55.3556 29.7445C60.6299 34.0401 66.1762 37.4114 67.9162 37.4114C68.4056 37.4114 67.6443 36.8133 66.1218 36.052C60.4668 33.1701 54.0506 27.8414 51.6037 23.872C50.6793 22.4039 50.4074 21.0989 50.4074 17.5645C50.3531 13.5408 50.4618 12.9426 51.8756 11.1483C53.6156 8.8645 56.6062 7.777 59.9231 8.26638C62.5874 8.647 64.0012 9.517 65.3606 11.7464C66.3937 13.3776 67.7531 13.7583 67.1549 12.2358C66.7743 11.2026 73.8431 4.35138 76.9424 2.7745C80.0962 1.14325 84.5549 0.599503 87.1649 1.4695C89.9381 2.39388 91.9499 5.49325 91.9499 8.81013C91.9499 14.9001 88.9049 20.9358 81.9449 28.4395C79.6068 30.9951 77.8124 33.2245 77.9212 33.3876C78.3562 33.8226 85.6968 25.8295 88.0349 22.3495C91.6781 16.9664 92.6568 14.3564 92.7112 9.57138C92.7656 5.05825 92.1131 3.59013 89.0681 1.30638C86.7843 -0.37925 81.6187 -0.433624 77.8124 1.14325Z" fill="white"/>
<path d="M113.809 42.6313C113.156 43.0663 112.612 43.9363 112.612 44.5344C112.612 45.7851 114.461 47.7426 115.603 47.7426C116.038 47.7426 116.908 47.2532 117.506 46.6551C118.104 46.0569 118.594 45.1869 118.594 44.7519C118.594 43.7732 116.691 41.7613 115.712 41.7613C115.331 41.7613 114.461 42.1419 113.809 42.6313Z" fill="white"/>
<path d="M74.2781 46.3832C73.0818 46.8182 71.4506 47.9057 70.635 48.8301C69.1668 50.4613 69.1125 50.6244 69.1125 57.2582V64.0551H71.8312H74.55V57.8563C74.55 52.0382 74.6043 51.5488 75.7462 50.7876C77.16 49.8088 80.0962 49.6457 81.6731 50.4613C82.5975 51.0051 82.7062 51.6576 82.7062 57.5301V64.0551H85.425H88.1437V56.9319V49.8088L86.5125 48.2863C83.7937 45.7307 78.465 44.9151 74.2781 46.3832Z" fill="white"/>
<path d="M97.8768 46.0569C94.0162 47.3076 92.5481 48.7757 92.4937 51.4401C92.4937 54.8113 93.8531 55.8444 100.541 57.5301C103.042 58.1826 103.532 59.2701 101.683 60.2488C100.541 60.9013 96.0824 60.5751 93.7443 59.6507C92.5481 59.2157 92.4937 59.3244 92.4937 61.5538C92.4937 63.8376 92.5481 63.9463 94.5599 64.2726C100.269 65.1969 105.87 64.3269 108.045 62.1519C109.785 60.4119 109.839 57.0951 108.154 55.5182C106.74 54.2676 103.858 53.1801 102.009 53.1801C101.302 53.1801 100.269 52.7451 99.6168 52.2013C97.1156 50.1351 100.813 48.9388 106.251 50.0807L108.262 50.5157V48.6126C108.262 47.5794 107.991 46.5463 107.719 46.3832C106.794 45.7851 99.3993 45.5676 97.8768 46.0569Z" fill="white"/>
<path d="M128.109 46.0569C124.412 46.9813 122.4 48.9932 122.4 51.8207C122.4 54.05 124.031 55.6813 126.913 56.4969C132.024 57.8563 132.731 58.1825 132.731 58.9438C132.731 60.575 130.23 61.01 126.152 60.14L122.346 59.3244L122.509 61.5538C122.726 64.1638 123.379 64.4357 129.142 64.5444C136.048 64.6532 139.256 62.75 139.256 58.5632C139.256 56.0075 137.788 54.485 134.634 53.7238C133.438 53.3975 131.752 52.9625 130.828 52.745C128.762 52.2013 128.272 50.1894 130.012 49.6457C131.154 49.265 135.069 49.6457 137.244 50.2438C138.114 50.5157 138.223 50.2438 138.06 48.5038C137.951 46.8182 137.625 46.3288 136.537 46.0569C134.743 45.5675 130.176 45.5675 128.109 46.0569Z" fill="white"/>
<path d="M5.76557 46.8726C3.75369 47.7426 1.19807 50.2982 0.545565 51.9839C-0.868185 55.627 0.545565 59.977 3.86244 62.3695C6.79869 64.4901 10.1156 64.9795 13.5412 63.892C15.0093 63.4026 16.1512 63.2395 16.2599 63.5114C16.3687 63.8376 17.6737 64.0551 19.1418 64.0551H21.8062V55.0832V46.1114H19.0874C17.0756 46.1114 16.3687 46.3289 16.3687 46.8726C16.3687 47.5795 16.1512 47.5795 14.4656 46.8726C12.1818 45.9482 7.94057 45.8939 5.76557 46.8726ZM14.1393 51.3314C15.5531 52.4732 15.8249 53.1257 15.8249 54.9745C15.7706 57.4214 15.1181 58.6176 13.2693 59.5964C9.78932 61.4451 5.49369 58.9439 5.49369 55.0832C5.49369 53.6151 5.92869 52.6907 7.07057 51.4945C9.19119 49.4282 11.8012 49.3739 14.1393 51.3314Z" fill="white"/>
<path d="M27.0262 51.5488C28.3312 54.5938 30.1799 58.6719 31.0499 60.5751L32.6268 64.0551H35.0193H37.4662L41.3268 55.3551C43.4474 50.5701 45.1874 46.5463 45.1874 46.3832C45.1874 46.2201 43.7737 46.1113 42.0337 46.1113H38.9343L37.2487 50.5701C36.3243 53.0169 35.3456 55.0832 35.0737 55.1919C34.8018 55.3007 33.7687 53.3432 32.8443 50.8963L31.1587 46.3832L27.8418 46.2201L24.5793 46.0569L27.0262 51.5488Z" fill="white"/>
<path d="M50.8968 46.8726C45.8399 49.0476 44.1543 56.0076 47.5799 60.5207C49.7006 63.2395 52.3649 64.327 57.1499 64.2726C63.2943 64.2182 64.2187 63.892 64.2187 61.5539C64.2187 59.6507 64.1643 59.6507 62.5331 59.977C60.1406 60.5207 56.0081 60.412 54.3224 59.7595C53.0718 59.2701 51.7124 57.7476 51.7124 56.7688C51.7124 56.6057 54.7574 56.4426 58.5093 56.4426H65.3062V54.3763C65.3062 49.4282 61.4999 46.1113 55.7906 46.1657C53.9962 46.1657 51.7668 46.492 50.8968 46.8726ZM57.8568 50.0264C59.1074 50.6789 60.3581 52.0382 60.4124 52.7451C60.4124 53.017 58.4549 53.1801 56.0624 53.1801C53.6699 53.1801 51.7124 53.017 51.7124 52.8538C51.7124 51.9838 53.0174 50.3526 54.0506 49.9176C55.6818 49.2651 56.4974 49.2651 57.8568 50.0264Z" fill="white"/>
<path d="M112.884 56.7688V64.0551H115.494H118.05V56.7144V49.3738L116.691 50.0263C115.712 50.4613 114.951 50.4613 114.081 50.0807L112.884 49.5369V56.7688Z" fill="white"/>
<path d="M90.5906 72.3201C87.1649 74.1688 84.1743 78.7363 84.4462 81.6182C84.7181 84.2282 86.1862 84.1738 89.0137 81.4007C90.3187 80.0957 91.4062 79.2257 91.4062 79.4976C91.4062 80.4763 86.7299 88.9045 85.2618 90.5357C83.9568 92.0038 83.8481 92.3301 84.6637 92.3301C86.7299 92.3301 89.9924 87.817 93.4724 80.0957C95.3212 75.9088 96.8437 72.3745 96.8437 72.2113C96.8437 71.6676 91.6237 71.722 90.5906 72.3201ZM93.7987 72.6463C94.3968 73.6251 88.9049 81.4551 87.5999 81.4551C86.1318 81.4551 88.3068 76.507 90.8081 73.9513C92.6024 72.157 93.3093 71.8851 93.7987 72.6463Z" fill="white"/>
<path d="M99.7256 72.0483C99.345 72.2114 99.0187 72.5376 99.0187 72.8639C99.0187 73.1901 98.04 75.5826 96.8437 78.247C95.6475 80.9114 94.6687 83.1951 94.6687 83.3583C94.6687 83.5214 95.1581 83.6301 95.7562 83.6301C96.4631 83.6301 97.605 82.4339 99.1818 79.9326C100.487 77.9208 102.118 75.8001 102.825 75.202L104.076 74.1145L103.804 75.3108C103.532 76.3439 104.728 78.3014 105.163 77.5945C105.924 76.3439 107.719 71.9939 107.501 71.8308C106.957 71.287 103.206 73.5708 101.901 75.3108C100.161 77.5401 99.8343 77.377 100.922 74.767C102.118 71.8851 101.901 71.3414 99.7256 72.0483Z" fill="white"/>
<path d="M109.404 73.2445C107.392 75.1476 106.087 77.9751 106.087 80.5308C106.087 82.8145 106.903 83.6301 109.187 83.6301C111.742 83.6301 114.57 80.9658 115.603 77.5401C116.038 76.0176 116.854 74.4408 117.343 74.0601C118.213 73.4076 118.159 73.3533 116.691 73.2989C114.081 73.2989 113.537 74.0058 113.482 77.2683C113.428 80.6395 112.123 82.7058 110.22 82.4339C108.697 82.2164 108.48 80.3133 109.622 77.3226C110.601 74.767 113.428 71.9939 114.57 72.4289C115.005 72.592 115.331 72.4833 115.331 72.2114C115.331 71.8851 114.352 71.6676 113.211 71.6676C111.634 71.6676 110.655 72.0483 109.404 73.2445Z" fill="white"/>
<path d="M120.986 72.1026C120.171 72.6463 116.419 81.2376 116.419 82.5426C116.419 84.3913 118.485 83.7932 121.421 81.0201C124.031 78.6276 124.14 78.5732 123.27 80.2045C122.074 82.597 122.128 83.7388 123.542 83.5213C124.303 83.4126 124.956 82.5426 125.608 80.6395C126.152 79.117 127.185 76.6157 127.892 75.0932C128.544 73.5163 128.979 72.1026 128.816 71.9395C128.218 71.3413 126.696 72.4288 125.826 74.0601C124.412 76.942 120.769 81.4551 119.953 81.4551C118.92 81.4551 118.866 81.727 121.041 76.942C122.074 74.6582 122.944 72.592 122.944 72.2657C122.944 71.5588 121.856 71.5045 120.986 72.1026Z" fill="white"/>
<path d="M131.426 72.3201C130.012 77.1595 124.249 89.8832 122.726 91.3513C121.802 92.2757 121.802 92.3301 122.835 92.3301C124.249 92.3301 126.913 89.2307 128.327 86.077C129.306 83.902 129.577 83.6301 131.209 83.6301C132.187 83.6301 133.764 83.1407 134.743 82.5426C137.027 81.1832 139.365 76.6157 139.147 73.9513C138.93 71.2326 137.679 71.1238 134.852 73.6795C133.221 75.0932 132.677 75.4195 132.949 74.6582C133.982 72.0482 133.982 71.6676 132.786 71.6676C132.133 71.6676 131.535 71.9938 131.426 72.3201ZM136.537 74.6582C136.537 75.9632 135.015 79.3345 133.492 81.292C132.133 83.032 130.012 83.7388 130.012 82.3795C130.012 81.6726 132.296 77.7032 134.091 75.3107C135.287 73.7338 136.537 73.4076 136.537 74.6582Z" fill="white"/>
</svg>
